<svg xmlns="http://www.w3.org/2000/svg" xmlns:xlink="http://www.w3.org/1999/xlink" version="1.1" width="1000" height="1000" viewBox="0 0 1000 1000" xml:space="preserve">
<desc>Created with Fabric.js 3.5.0</desc>
<defs>
</defs>
<rect x="0" y="0" width="100%" height="100%" fill="rgba(255,255,255,0)"/>
<g transform="matrix(49.8473 0 0 49.8473 498.6324 498.6324)" id="159135">
<path style="stroke: none; stroke-width: 1; stroke-dasharray: none; stroke-linecap: butt; stroke-dashoffset: 0; stroke-linejoin: miter; stroke-miterlimit: 4; is-custom-font: none; font-file-url: none; fill: rgb(255,255,255); fill-rule: evenodd; opacity: 1;" vector-effect="non-scaling-stroke" transform=" translate(-254, -7449)" d="M 259.821 7453.12124 C 259.58 7453.80344 258.622 7454.36761 257.858 7454.53266 C 257.335 7454.64369 256.653 7454.73172 254.355 7453.77943 C 251.774 7452.71011 248.19 7448.90097 248.19 7446.36621 C 248.19 7445.07582 248.934 7443.57337 250.235 7443.57337 C 250.861 7443.57337 250.999 7443.58538 251.205 7444.07952 C 251.446 7444.6617 252.034 7446.09613 252.104 7446.24317 C 252.393 7446.84635 251.81 7447.19946 251.387 7447.72462 C 251.252 7447.88266 251.099 7448.05372 251.27 7448.3478 C 251.44 7448.63589 252.028 7449.59418 252.892 7450.36341 C 254.008 7451.35771 254.913 7451.6748 255.237 7451.80984 C 255.478 7451.90987 255.766 7451.88687 255.942 7451.69881 C 256.165 7451.45774 256.442 7451.05762 256.724 7450.6635 C 256.923 7450.38141 257.176 7450.3464 257.441 7450.44643 C 257.62 7450.50845 259.895 7451.56477 259.991 7451.73382 C 260.062 7451.85686 260.062 7452.43903 259.821 7453.12124 M 254.002 7439 L 253.997 7439 L 253.997 7439 C 248.484 7439 244 7443.48535 244 7449 C 244 7451.18666 244.705 7453.21526 245.904 7454.86076 L 244.658 7458.57687 L 248.501 7457.3485 C 250.082 7458.39482 251.969 7459 254.002 7459 C 259.515 7459 264 7454.51465 264 7449 C 264 7443.48535 259.515 7439 254.002 7439" stroke-linecap="round"/>
</g>
</svg>